<svg width="200" height="200" viewBox="0 0 200 200" fill="none" xmlns="http://www.w3.org/2000/svg">
<path d="M66.6667 66.6667L66.6667 58.3333C66.6667 39.9238 81.5906 25 100 25V25C118.41 25 133.333 39.9238 133.333 58.3333L133.333 66.6667" stroke="#917657" stroke-width="11" stroke-linecap="round"/>
<path fill-rule="evenodd" clip-rule="evenodd" d="M25.5858 58.9191C25 59.5049 25 60.4477 25 62.3333V175.333C25 179.105 25 180.99 26.1716 182.162C27.3431 183.333 29.2288 183.333 33 183.333H167C170.771 183.333 172.657 183.333 173.828 182.162C175 180.99 175 179.105 175 175.333V62.3333C175 60.4477 175 59.5049 174.414 58.9191C173.828 58.3333 172.886 58.3333 171 58.3333H29C27.1144 58.3333 26.1716 58.3333 25.5858 58.9191ZM81 100C81 96.6863 78.3137 94 75 94C71.6863 94 69 96.6863 69 100V116.667C69 119.98 71.6863 122.667 75 122.667C78.3137 122.667 81 119.98 81 116.667V100ZM131 100C131 96.6863 128.314 94 125 94C121.686 94 119 96.6863 119 100V116.667C119 119.98 121.686 122.667 125 122.667C128.314 122.667 131 119.98 131 116.667V100Z" fill="#917657"/>
</svg>
