<svg width="200" height="200" viewBox="0 0 200 200" fill="none" xmlns="http://www.w3.org/2000/svg">
<path d="M79.0125 75.2C75.6375 72.95 64.4375 65.175 64.4375 65.175C73.8875 51.6625 86.35 46.4 103.587 46.4C115.775 46.4 126.125 50.4875 133.512 58.25C140.9 66.0125 145.113 77.1125 146.075 91.3C150.175 93.025 153.946 95.0417 157.387 97.35C171.25 106.662 178.875 120.6 178.875 136.562C178.875 170.512 151.05 200 100.675 200C57.425 200 12.5 174.837 12.5 99.925C12.5 25.425 56.025 0 100.55 0C121.125 0 169.375 3.03749 187.5 62.95L170.5 67.3625C156.45 24.675 127.037 17.875 100.075 17.875C55.5125 17.875 30.3 45.0125 30.3 102.75C30.3 154.538 58.475 182.037 100.675 182.037C135.387 182.037 161.262 164 161.262 137.587C161.262 119.613 146.162 111 145.387 111C142.438 126.425 134.537 152.375 99.8375 152.375C79.6125 152.375 62.175 138.4 62.175 120.1C62.175 93.975 86.975 84.5125 106.55 84.5125C113.875 84.5125 122.725 85.0125 127.338 85.9375C127.338 77.975 120.587 64.3375 103.587 64.3375C87.9625 64.3375 84.0125 69.4 79 75.1875L79.0125 75.2ZM108.95 102.375C83.45 102.375 80.15 113.25 80.15 120.075C80.15 131.05 93.1875 134.675 100.15 134.675C112.9 134.675 125.988 131.15 128.05 104.387C121.791 102.927 115.375 102.251 108.95 102.375Z" fill="#917657"/>
</svg>
