<svg width="343" height="376" viewBox="0 0 343 376" fill="none" xmlns="http://www.w3.org/2000/svg">
<g clip-path="url(#clip0_180_8)">
<path d="M263.982 106.656L261.983 106.539L259.984 106.921L258.014 107.273L256.015 107.332L253.987 107.126L251.959 107.244L250.048 107.861L247.931 108.39L248.637 106.186L248.549 104.012L249.107 101.955L249.901 99.8984L249.989 97.7535L249.96 95.6087L249.754 93.4638L249.577 91.3483L250.312 89.2328L249.754 87.1467L249.842 85.0312L249.871 82.9157L249.313 80.8296L249.048 78.7434L248.578 76.6867L248.549 74.5418L247.902 72.5145L246.932 70.6047L246.373 68.5773L245.638 66.6087L245.55 64.4051L244.727 62.4659L244.022 60.4679L242.64 58.7638L242.023 56.7658L240.67 55.091L240.318 52.8874L239.024 51.1832L237.701 49.5379L236.79 47.628L235.673 45.8357L234.35 44.1903L232.821 42.7213L231.969 40.7233L230.499 39.1954L228.823 37.8732L227.795 35.934L226.031 34.7294L224.708 33.084L223.062 31.7324L221.18 30.7041L219.857 28.9999L218.241 27.6483L216.271 26.7669L214.419 25.7385L212.92 24.2107L210.98 23.3586L209.128 22.3302L207.511 20.8905L205.629 19.9209L203.542 19.392L201.749 18.2755L199.721 17.6879L197.81 16.7183L195.664 16.4832L193.694 15.8368L191.637 15.308L189.697 14.3971L187.668 13.8976L185.493 14.0152L183.523 12.9868L181.436 12.7223L179.319 12.7517L177.203 12.8105L175.116 12.5167L172.999 12.6048L170.912 12.1641L168.795 12.6636L166.708 12.8693L164.592 12.5461L162.534 13.2218L160.359 12.7517L158.389 13.7213L156.214 13.6332L154.215 14.309L152.157 14.7791L150.187 15.4549L147.953 15.3373L146.189 16.7183H143.955L142.192 17.9817L140.251 18.8338L138.194 19.3627L136.489 20.6261L134.401 21.155L132.491 22.0658L130.874 23.4761L128.934 24.3576L127.287 25.6798L125.553 26.8257L123.642 27.7953L122.202 29.3819L120.644 30.7628L118.968 32.0556L117.087 33.1134L116.058 35.0526L114 35.9928L112.736 37.697L111.678 39.5774L110.267 41.1346L108.826 42.6331L107.768 44.4842L105.916 45.7476L104.946 47.628L103.829 49.3909L102.976 51.3595L101.507 52.9168L101.007 55.0616L99.9486 56.8833L99.243 58.8519L97.832 60.5267L97.5968 62.7009L96.8031 64.6401L96.2152 66.6381L95.2451 68.5479L94.8923 70.634L94.4514 72.6614L93.8047 74.6887L93.5989 76.7749L92.8052 78.7434L92.5994 80.8589L92.1584 82.9157L91.9821 85.0312L91.6881 87.1173L92.0703 89.2328L91.6587 91.3483L91.8645 93.4344L91.9527 95.5499L92.2172 97.636L92.6288 99.6927V101.808L92.9228 103.894L93.5989 105.892V107.949L91.5411 108.008L89.5128 107.361L87.3962 107.332L85.309 107.303L83.2219 106.744L81.1053 106.803L79.0182 106.686L76.9016 106.891L74.8144 106.833L72.6685 106.539L70.6107 106.95L68.4941 107.068L66.4364 107.714L64.408 108.272L62.3797 108.801L60.1455 108.537L58.2053 109.418L56.2064 110.065L54.0898 110.417L52.2084 111.328L50.18 111.974L48.3281 112.973L46.4173 113.825L44.4183 114.56L42.6839 115.765L40.6849 116.47L38.7741 117.41L36.9222 118.409L35.4229 119.996L33.3946 120.73L31.6308 121.905L30.3667 123.727L28.5147 124.755L26.7803 125.99L25.3987 127.576L24.164 129.339L22.606 130.72L20.9598 132.072L19.343 133.453L17.9613 135.039L17.0794 137.037L15.2568 138.271L14.228 140.152L13.3461 142.091L12.1408 143.824L10.8473 145.47L10.23 147.526L9.20113 149.348L7.73129 150.964L6.67301 152.815L6.32025 154.96L5.67353 156.958L4.79163 158.868L3.70395 160.719L3.02783 162.717L3.08662 164.921L1.96955 166.801L1.35222 168.828L1.76378 171.061L0.970066 173.03L1.05826 175.175L0.293943 177.202L0.23515 179.318L0.470323 181.433L-0.352783 183.49L0.293943 185.605L0.176356 187.721L0.440926 189.807L-2.3514e-05 191.922L0.823082 193.979L0.705496 196.095L0.970066 198.181L1.08765 200.296L1.94015 202.294L2.29291 204.351L3.02783 206.349L3.55697 208.376L3.85094 210.492L4.64465 212.431L5.0856 214.547L6.08508 216.398L7.20215 218.219L7.79009 220.247L9.14233 221.921L9.64207 224.037L11.3177 225.506L12.0526 227.504L13.1403 229.326L14.1398 231.206L15.3744 232.881L16.7267 234.497L17.9025 236.289L19.6075 237.611L20.6952 239.433L22.1063 241.02L23.6349 242.489L25.722 243.341L27.1919 244.839L28.4559 246.573L30.4255 247.484L32.0717 248.806L33.8649 249.893L35.4229 251.303L37.0985 252.596L38.8917 253.683L40.5379 255.064L42.5957 255.711L44.5653 256.445L46.4761 257.297L48.4456 258.002L50.2388 259.207L52.1496 260.03L54.2368 260.47L56.1476 261.411L58.2053 261.822L60.2043 262.498L62.2327 263.174L64.408 262.968L66.4952 263.32L68.5823 263.497L70.6401 263.879L72.7273 263.967L74.8144 264.349L76.9016 264.643L79.0182 264.819L81.0759 264.202L83.1337 264.319L85.2208 264.584L87.2492 263.937H89.307L91.4235 263.967L93.2461 263.379V265.436L92.3054 267.463L92.2172 269.638L92.423 271.841L91.6587 273.957L91.5411 276.131L91.9527 278.305L91.6293 280.421L92.423 282.477L92.5112 284.593L92.0115 286.738L92.2466 288.853L92.9522 290.881L93.4519 292.908L93.6577 295.024L93.981 297.11L94.8041 299.078L95.5097 301.047L95.5685 303.25L96.8325 305.043L97.4792 307.041L98.5375 308.862L98.8021 311.037L99.5958 313.005L100.86 314.739L101.918 316.56L103.123 318.294L103.682 320.38L105.034 322.055L106.592 323.495L107.592 325.375L108.944 326.991L110.032 328.813L111.825 330.047L113.236 331.604L114.353 333.396L115.97 334.777L117.293 336.423L119.027 337.627L120.585 339.067L121.996 340.654L123.642 341.976L125.7 342.71L127.111 344.356L129.198 345.031L130.815 346.412L132.461 347.764L134.637 348.205L136.577 348.969L138.282 350.32L140.31 350.908L142.309 351.554L144.279 352.259L146.042 353.552L148.041 354.257L150.276 354.081L152.304 354.639L154.244 355.521L156.243 356.344L158.301 356.667L160.476 356.52L162.534 357.049L164.621 357.401L166.767 356.902L168.854 357.049L170.941 357.695L173.058 356.872L175.145 357.078L177.232 356.696L179.319 356.608L181.407 356.314L183.611 356.696L185.581 355.726L187.727 355.756L189.755 355.109L191.813 354.639L193.694 353.611L195.929 353.64L197.663 352.259L199.897 352.201L201.749 351.172L203.572 350.085L205.571 349.38L207.599 348.763L209.392 347.646L211.244 346.618L212.685 344.943L214.448 343.797L216.506 343.092L218.27 341.946L219.946 340.624L221.122 338.744L223.003 337.745L224.561 336.305L226.001 334.777L227.648 333.455L229.206 332.045L230.234 330.135L231.881 328.754L233.057 327.02L234.409 325.404L235.379 323.524L236.731 321.879L238.025 320.233L238.936 318.323L239.73 316.384L240.788 314.562L241.699 312.682L242.757 310.86L244.11 309.156L244.492 307.041L245.168 305.043L246.285 303.221L246.314 301.017L247.432 299.137L247.696 297.051L248.049 294.965L248.696 292.967L249.166 290.91L249.695 288.853L249.93 286.738L249.519 284.593L249.871 282.507V280.391L249.695 278.305L249.871 276.102L250.107 273.898L249.666 271.724L249.871 269.52L249.372 267.346L249.313 265.142L248.431 262.997L250.753 263.056L252.811 264.143L255.075 264.055L257.338 263.937L259.514 264.79L261.748 264.437L263.982 264.525L266.069 264.29L268.186 264.231L270.273 264.055L272.389 264.29H274.535L276.564 263.526L278.592 262.968L280.738 262.938L282.766 262.41L284.883 262.175L286.823 261.293L288.822 260.617L290.821 259.912L292.938 259.589L294.672 258.267L296.7 257.65L298.699 256.945L300.345 255.475L302.403 254.888L304.196 253.801L305.99 252.714L307.636 251.362L309.635 250.51L311.016 248.865L312.81 247.748L314.515 246.514L315.779 244.751L317.425 243.458L318.865 241.93L320.659 240.755L321.746 238.875L323.775 237.876L324.715 235.907L326.479 234.614L327.361 232.675L328.919 231.177L330.212 229.502L331.33 227.71L332.006 225.653L333.24 223.949L334.24 222.098L334.887 220.07L335.857 218.219L336.65 216.251L337.356 214.282L338.032 212.284L338.737 210.316L339.561 208.406L340.178 206.378L341.06 204.439L341.413 202.353L341.677 200.267L342.353 198.24L342.588 196.153L342.118 193.979L342.647 191.922L342.735 189.807L343.323 187.721L342.853 185.605L343.147 183.519L342.588 181.433L342.53 179.318L342.971 177.173L342.588 175.087L341.795 173.089L342.059 170.885L341.266 168.887L340.472 166.918L340.325 164.803L339.355 162.864L338.737 160.866V158.662L337.503 156.87L336.944 154.813L336.209 152.845L334.887 151.111L334.152 149.142L333.182 147.291L332.006 145.528L331.212 143.531L329.83 141.915L328.86 140.034L327.567 138.359L325.891 137.008L324.921 135.069L323.598 133.453L322.217 131.866L320.747 130.367L319.159 128.957L317.689 127.459L315.984 126.195L314.162 125.079L312.868 123.345L311.163 122.111L309.488 120.848L307.812 119.526L306.107 118.291L303.961 117.763L302.227 116.558L300.61 115.148L298.611 114.413L296.671 113.62L294.731 112.797L292.761 112.004L290.88 111.034L288.881 110.358L286.852 109.829L284.853 109.183L282.825 108.566L280.708 108.302L278.621 108.037L276.593 107.508L274.506 107.038L272.36 107.303L270.273 107.068L268.186 106.656L266.098 106.744L263.982 106.656Z" fill="#8BAF8F"/>
<path d="M59.1754 71.0748C59.2342 70.8104 59.3518 70.5753 59.587 70.399C60.0574 70.1052 60.5277 69.9583 60.9392 70.017C61.1744 69.8995 61.7624 69.8408 62.703 69.8408L64.7902 70.4284H66.701L67.0831 70.5165L68.9645 71.1336L70.405 71.0748L70.9929 71.2217L73.2858 71.8387L74.5499 71.78L75.9315 72.3676L78.1069 72.5145C78.5478 72.6908 79.077 72.9259 79.6355 73.2491L80.8996 72.8377L81.2523 72.8671L82.5164 73.396L83.6922 73.2197L84.6329 73.6604L85.3385 73.7779C85.9558 73.8955 86.2792 74.1305 86.3086 74.4831L86.3967 76.0991L86.3379 76.5104C86.2792 76.8043 85.3385 77.0687 83.5453 77.2744L82.7222 77.0687H81.0172L80.4586 76.5692L79.9883 76.4811L78.5184 76.628L75.9609 75.8053L74.7263 76.0991L72.2864 75.2764L70.4638 75.3352C70.4344 75.3352 69.8464 75.0707 68.6706 74.5419L67.1125 74.4243L66.6716 74.3656L65.6721 74.013C65.1136 73.9542 64.7314 74.1011 64.5256 74.4537L64.702 75.1589L65.3193 77.2156V77.3038C65.143 78.2146 64.7902 78.6259 64.3493 78.5378C64.2905 78.5378 64.2317 78.5084 64.1435 78.479C63.2028 78.3321 62.4091 77.7151 61.733 76.6574L60.7629 75.629L60.6747 74.5419L60.1455 73.8661L59.6458 73.1903C59.2342 72.0738 59.1167 71.3686 59.1754 71.0748Z" fill="#526653"/>
<path d="M65.7897 49.7435L66.554 48.8327C67.2302 48.2157 67.6123 47.8337 67.7593 47.7162C67.8769 47.5987 68.5236 47.2755 69.6995 46.7466H71.1693L72.404 46.3646L73.9032 46.5997C74.3442 46.5409 74.8439 46.5409 75.4318 46.5409L75.8434 46.776C76.0786 46.8641 76.5489 46.8347 77.225 46.6878L77.9012 46.9523C78.2833 47.0992 78.9594 47.2461 79.9295 47.4224L81.1936 48.0982L82.6634 48.5977L83.5453 49.3616L85.5737 50.3606C85.897 50.8601 86.5732 51.3595 87.6608 51.8884C88.1312 52.4761 88.4839 52.9755 88.7485 53.3869L89.6598 54.3565L89.7774 55.3261L90.4241 56.3545L90.5123 57.5885C90.6005 57.9999 90.6299 58.3231 90.6593 58.5581L90.0714 59.7628L89.5716 60.5561L89.1601 61.702L89.0425 61.8489C88.3664 62.2602 87.9548 62.5247 87.8372 62.6422C87.7196 62.7597 87.6314 62.9066 87.5433 63.1123C87.2199 63.2592 86.7495 63.318 86.1322 63.2886C85.9558 63.4355 85.4267 63.6118 84.5448 63.8175L83.5159 64.4345L82.3106 64.3463L81.5463 64.5226L80.2823 64.1407C79.7531 64.1407 79.3122 64.17 78.93 64.2288L78.3421 64.1994L77.2544 63.7881C76.6077 63.7293 76.108 63.6706 75.6964 63.6118L74.8145 63.0242L73.0801 62.4659L72.2864 61.7607C71.816 61.4082 71.2281 61.085 70.4638 60.7911C70.2874 60.7324 70.1404 60.6736 69.9935 60.6442L68.7294 59.4102L67.2302 58.2055C66.9656 57.5004 66.5834 56.8833 66.0543 56.3251C65.9367 55.8256 65.7897 55.2967 65.584 54.7091L65.2312 53.8276L65.3488 52.5348L65.2312 52.0059L65.6428 51.1245L65.7897 49.7435ZM69.1704 52.7111C69.0528 53.0637 69.0528 53.475 69.141 53.9452C69.2879 54.1508 69.5525 54.4153 69.9053 54.7385C70.0523 55.3849 70.258 55.8844 70.4932 56.2369L71.1693 56.5601L71.6691 56.8246C71.963 57.2947 72.2864 57.7354 72.6392 58.1468L72.9037 58.2937L73.4917 58.47C73.7268 58.7638 74.0502 58.9695 74.403 59.1164L75.1967 59.4102L76.108 59.5277L77.225 60.2623L78.3715 60.3798L78.6361 60.4973L79.1946 60.8793C79.6356 61.0556 80.2823 60.938 81.076 60.5267L81.223 60.4973L82.5752 60.6736C83.4277 60.4092 83.9863 60.1153 84.2508 59.7921C84.7506 59.8803 85.1915 59.6746 85.6031 59.2339C86.0734 59.087 86.4556 58.7638 86.7495 58.2643L86.9847 57.7354C86.8083 56.8833 86.5438 56.2369 86.1616 55.8256C85.8382 55.5024 85.5149 55.1498 85.1621 54.8266C85.1033 54.474 85.0151 54.1508 84.8682 53.8864C84.5448 53.5632 84.1038 53.2987 83.4865 53.0637L83.3983 53.0343L82.1931 51.9766L81.7521 51.9178H81.5757L80.6644 51.242L79.7237 51.0363C79.4592 50.7719 79.1946 50.5956 78.9006 50.4781C78.4891 50.4487 78.0775 50.3899 77.666 50.3312L76.8429 49.8023L75.4024 50.008H75.373C74.3148 49.5966 73.4623 49.6554 72.7861 50.1843C72.4922 50.1255 72.1982 50.0961 71.8748 50.0961L71.3457 50.3312C70.8754 50.243 70.3462 50.3312 69.7877 50.5956C69.4349 50.7719 69.1703 51.007 69.0822 51.3302C68.994 51.5358 68.994 51.7709 69.0234 52.0353L69.1704 52.7111Z" fill="#526653"/>
<path d="M96.2153 45.0718L96.0683 45.3069L95.451 46.0414L94.9806 46.5703C94.4221 47.1579 93.5696 47.4811 92.3937 47.628C91.8058 47.5399 91.2766 47.3342 90.7475 47.011L90.6887 46.9816C90.0714 46.5115 89.6598 45.777 89.454 44.8074C89.3952 43.8965 89.5422 43.0445 89.9244 42.2512L90.042 42.0749C90.1596 41.8692 90.6593 41.4872 91.453 40.929C91.9528 40.7233 92.4231 40.6939 92.9522 40.8114C93.4226 40.9877 94.0105 41.1053 94.7748 41.1934C95.304 41.546 95.6861 41.9867 95.9507 42.5156C96.0977 42.8682 96.1859 43.1914 96.1565 43.4558C96.1271 43.8084 96.1565 44.1904 96.2447 44.6311L96.2153 45.0718Z" fill="#526653"/>
<path d="M103.359 35.317L103.182 35.5227L102.271 35.8165L101.624 36.6392C100.919 36.7861 100.36 37.0506 99.9485 37.3738C99.5958 37.55 98.6845 37.4031 97.1853 36.8743L96.0682 36.8155L95.3627 36.081L94.9805 35.8165C94.3632 35.2876 94.0692 34.6119 94.128 33.7892L93.5989 32.467C93.981 31.7618 94.2456 31.2623 94.3338 30.9391C94.5102 30.6159 94.5689 30.2927 94.5689 29.9108C94.9511 29.47 95.1569 28.9412 95.2451 28.3829L96.4503 27.5896L96.6267 27.3839C96.7443 27.237 96.8325 26.9726 96.8619 26.5612L96.9795 26.2086L97.832 25.6504C98.0084 25.4153 98.0965 24.9746 98.1553 24.387C98.3317 24.3282 98.5081 24.2107 98.6551 24.0344C98.7433 23.9169 98.8315 23.7406 98.9197 23.5055C98.9785 23.2705 98.8903 23.0354 98.6551 22.8003L98.1847 22.5947L97.832 22.007C97.5086 21.7132 96.9501 21.6838 96.1564 21.9483L95.3921 22.4771C94.6865 22.7122 94.1868 22.8885 93.9222 23.006L93.5107 23.4467L93.1285 24.2401L93.0109 24.4163L92.1584 25.004C91.8645 25.8267 91.7763 26.4437 91.8645 26.8844L92.2466 27.5896L92.5994 27.9128C92.8639 28.2948 93.0109 28.7649 93.0403 29.2937C93.0109 29.9108 92.8052 30.4103 92.5112 30.7628C92.4524 30.8216 92.3936 30.8804 92.3348 30.9097C91.6293 31.4092 90.8944 31.5855 90.1595 31.468L89.5421 30.8216L88.866 30.3221C88.572 30.0577 88.4838 29.4113 88.572 28.3535L88.2781 27.5896L88.6014 26.5318L88.572 25.5035L89.3364 24.4457L89.6891 23.5055L89.8361 23.2998L90.5122 22.771L91.012 22.1246L91.6587 21.0374L92.6288 20.2441C92.864 20.156 93.1285 19.9797 93.4519 19.7152C94.2162 19.7446 94.8335 19.5096 95.3039 18.9513C96.1564 18.8925 96.8619 18.8044 97.4204 18.6281C97.6556 18.6575 98.1553 18.8632 98.9197 19.2157L100.977 19.9209L101.036 19.9797C101.301 20.5967 101.565 21.008 101.83 21.2431C101.977 21.3606 102.565 21.7426 103.594 22.3302L104.329 23.4174L105.093 23.7993C105.211 23.8875 105.387 24.1813 105.681 24.6808C106.622 25.1215 107.18 25.3566 107.386 25.3566L108.973 25.004C109.708 25.004 110.208 25.0921 110.443 25.2978C110.649 25.5035 110.678 25.9736 110.473 26.7081C110.384 26.8257 110.267 26.9726 110.149 27.0901C109.708 27.5896 109.267 28.0009 108.885 28.3241C108.503 28.6473 107.915 28.7942 107.151 28.853C107.004 28.9118 106.916 28.9705 106.827 29.0587C106.622 29.2937 106.475 29.7345 106.445 30.3221L106.386 31.3211L105.798 31.8206L105.269 32.9371C104.74 33.4072 104.417 33.701 104.299 33.8479C103.917 34.2593 103.623 34.7588 103.359 35.317ZM101.036 33.2897L101.624 31.8793L101.83 31.6737L102.741 31.1742C103.006 30.234 103.329 29.3525 103.682 28.5298C103.741 28.0303 103.711 27.5602 103.535 27.1195C103.417 27.0313 103.065 26.8257 102.477 26.5612L102.3 25.239L100.654 25.7679L100.478 25.9736C100.331 26.1205 100.184 26.6787 100.037 27.619L99.8604 27.9128L98.3023 28.853L98.0965 29.0881L97.5968 30.6747C97.5674 30.7041 97.2734 30.9097 96.7443 31.2623C96.8619 32.1438 96.8325 32.7902 96.6855 33.1721L97.391 34.4356C97.7144 34.7294 98.2435 34.7294 99.0078 34.4943L101.036 33.2897Z" fill="#526653"/>
<path d="M116.117 22.3596C115.94 22.4771 115.264 22.6828 114.088 23.0354C113.324 23.4467 112.736 23.3292 112.325 22.7122L112.178 22.4771C112.001 21.6544 112.06 21.0374 112.354 20.5673C112.942 19.8328 113.06 19.1276 112.707 18.4812L111.825 17.5116L111.384 16.4539C111.031 16.1894 110.767 15.925 110.59 15.7193C110.531 15.543 110.384 15.2198 110.208 14.7497L109.473 13.8682L109.209 13.1925L108.532 12.5461L108.238 11.8409C107.945 11.4002 107.533 11.2239 107.004 11.2826C106.445 11.4002 106.004 11.4295 105.652 11.4002C105.181 11.1651 104.828 10.8713 104.593 10.5481L104.564 10.5187C104.505 10.4306 104.446 10.313 104.417 10.2249C104.152 9.28467 104.27 8.63827 104.799 8.28569L105.71 8.02125C106.093 7.66867 106.387 7.37485 106.563 7.13979L107.268 6.9635C107.856 6.84597 108.327 6.72845 108.65 6.55216C109.062 5.96452 109.65 5.25935 110.355 4.46604C110.796 4.17222 111.707 3.84902 113.06 3.46706L113.53 3.26138L114.294 2.46807C114.588 2.14487 114.97 1.73353 115.47 1.20465C115.617 1.08712 115.764 0.998979 115.94 0.881451L116.205 0.70516C116.94 0.55825 117.616 0.352577 118.175 0.0881403C118.557 -0.0587692 119.468 0.117522 120.938 0.675778L122.496 2.05673L122.702 2.76189C122.76 2.82066 123.113 3.17324 123.789 3.79026L124.201 4.67172L124.73 5.22997L125.024 6.34648C125.377 6.55216 125.641 6.78721 125.788 6.99288L126.082 7.84496L126.758 8.55012L127.023 9.37282C127.376 9.93107 128.258 10.1074 129.61 9.93107C130.286 10.1367 130.727 10.3718 130.933 10.695L130.962 10.7244C131.197 11.4883 131.138 12.0466 130.815 12.3992L130.521 12.5167L129.286 12.9868C129.051 13.1337 128.61 13.6332 127.964 14.4265C127.875 14.4853 127.346 14.6616 126.376 14.9848L125.465 15.3961C125.112 15.9837 124.818 16.3657 124.583 16.542L122.76 17.3941L122.055 18.2461C121.732 18.3049 120.967 18.6869 119.791 19.392C119.439 19.8622 119.174 20.1854 118.998 20.3616C118.057 20.6555 117.41 20.9199 116.969 21.2137L116.117 22.3596ZM118.498 17.541C118.616 17.3647 118.762 17.1003 118.939 16.7771C119.233 16.3657 119.233 15.925 118.939 15.4255C118.821 15.2492 118.704 15.1023 118.557 14.9554L118.263 14.1621C117.969 13.8682 117.704 13.692 117.44 13.6332L117.293 13.3981L117.175 12.5461L116.264 11.8409C116.264 11.5765 116.146 11.2533 115.911 10.9007L115.852 10.8419C115.705 10.6362 115.529 10.4306 115.294 10.2543L115.235 10.1955L115.088 9.66664L114.941 9.4022L114.265 8.81456L114.059 7.9331C113.383 7.52176 112.707 7.37485 112.001 7.55114C111.854 7.63929 111.737 8.16816 111.619 9.10838C111.119 9.78416 111.031 10.3424 111.266 10.7538L111.972 11.3414L112.266 12.1641L113.03 12.8693C113.177 13.0749 113.324 13.4275 113.53 13.927L114.088 14.5146L114.441 15.6899L115.294 16.5126L115.499 17.1003L115.705 17.3941C116.234 17.8054 116.734 17.8642 117.204 17.541L118.204 17.7173L118.498 17.541ZM124.348 13.8389L124.465 12.7811C124.642 12.4873 124.73 12.0466 124.789 11.4883C124.554 11.1651 124.348 10.8713 124.171 10.6656L123.613 10.1661C123.495 9.98984 123.319 9.60787 123.054 8.93209C122.996 8.87332 122.702 8.57951 122.143 8.08001L121.79 6.90474L121.173 6.58154C120.997 6.28772 120.673 5.6707 120.203 4.75986L120.174 4.7011C119.88 4.26037 119.497 3.96655 118.998 3.84902H118.439L117.969 3.96655L117.498 4.87739C117.204 5.3475 117.175 5.87637 117.41 6.49339L117.44 7.69805L118.469 8.4326L118.733 9.4022L119.439 9.81354C119.468 9.93107 119.556 10.1955 119.762 10.6362L120.585 11.312L120.997 12.1641L121.614 12.8693L121.849 13.5157C122.173 13.927 122.555 14.0445 122.966 13.8389C123.26 13.7213 123.701 13.7213 124.348 13.8389Z" fill="#526653"/>
<path d="M215.419 351.554C215.654 351.407 215.918 351.378 216.183 351.437C216.712 351.613 217.094 351.877 217.329 352.23C217.565 352.348 217.976 352.759 218.564 353.493L219.446 355.462L220.651 356.96L220.857 357.313L221.533 359.164L222.474 360.251L222.738 360.81L223.708 362.984L224.561 363.924L224.972 365.364L226.237 367.127C226.384 367.597 226.53 368.126 226.648 368.772L227.765 369.507L227.942 369.8L228.324 371.123L229.206 371.916L229.441 372.915L229.794 373.532C230.087 374.061 230.117 374.472 229.852 374.737L228.647 375.824L228.265 376.029C228 376.176 227.207 375.618 225.913 374.355L225.56 373.561L224.473 372.239L224.532 371.475L224.296 371.064L223.238 370.006L222.268 367.479L221.268 366.686L220.357 364.277L219.152 362.925C219.152 362.896 218.976 362.279 218.623 361.045L217.711 359.781L217.476 359.429L217.124 358.43C216.8 357.959 216.447 357.754 216.065 357.813L215.624 358.4L214.419 360.163L214.331 360.192C213.508 360.633 212.979 360.633 212.743 360.222C212.714 360.163 212.685 360.104 212.655 360.046C212.185 359.223 212.156 358.195 212.538 357.019L212.714 355.609L213.508 354.874L213.714 354.022L213.919 353.2C214.684 352.23 215.154 351.701 215.419 351.554Z" fill="#526653"/>
<path d="M229.206 341.858L230.323 341.388C231.205 341.153 231.734 340.977 231.91 340.947C232.086 340.889 232.792 340.918 234.085 340.977L235.379 341.653L236.672 341.888L237.907 342.769C238.319 342.916 238.789 343.151 239.289 343.415L239.553 343.797C239.73 344.003 240.141 344.179 240.817 344.356L241.288 344.885C241.552 345.208 242.081 345.648 242.875 346.236L243.698 347.411L244.786 348.557L245.227 349.644L246.55 351.466C246.608 352.054 246.991 352.818 247.696 353.758C247.843 354.492 247.931 355.109 247.99 355.609L248.372 356.902L248.019 357.813L248.108 359.017L247.608 360.163C247.49 360.574 247.373 360.868 247.285 361.103L246.226 361.897L245.403 362.367L244.521 363.219L244.345 363.307C243.551 363.366 243.051 363.395 242.904 363.454C242.757 363.513 242.581 363.601 242.434 363.748C242.081 363.748 241.64 363.571 241.111 363.278C240.876 363.307 240.317 363.219 239.465 363.013L238.26 363.101L237.26 362.426L236.496 362.249L235.555 361.338C235.085 361.103 234.673 360.927 234.321 360.78L233.821 360.486L233.057 359.605C232.527 359.252 232.086 358.958 231.763 358.723L231.234 357.813L229.94 356.52L229.5 355.521C229.264 354.992 228.853 354.434 228.324 353.817C228.206 353.67 228.088 353.552 228 353.464L227.442 351.789L226.648 350.026C226.736 349.292 226.677 348.557 226.472 347.823C226.589 347.323 226.707 346.765 226.795 346.177L226.883 345.237L227.559 344.15L227.706 343.621L228.471 343.033L229.206 341.858ZM230.822 346.03C230.558 346.295 230.352 346.647 230.234 347.088C230.264 347.353 230.381 347.705 230.558 348.146C230.381 348.792 230.323 349.351 230.381 349.733L230.852 350.32L231.175 350.79C231.205 351.349 231.293 351.907 231.44 352.436L231.587 352.7L232.057 353.141C232.145 353.523 232.292 353.846 232.557 354.11L233.145 354.757L233.88 355.286L234.526 356.432L235.496 357.078L235.702 357.284L236.026 357.871C236.349 358.224 236.966 358.43 237.848 358.43L237.995 358.488L239.112 359.252C239.994 359.429 240.611 359.399 240.994 359.223C241.405 359.517 241.876 359.575 242.463 359.37C242.934 359.458 243.434 359.34 243.933 359.017L244.374 358.665C244.609 357.813 244.668 357.137 244.521 356.579C244.404 356.138 244.257 355.697 244.08 355.227C244.198 354.904 244.257 354.581 244.257 354.257C244.139 353.846 243.845 353.376 243.404 352.876L243.345 352.818L242.757 351.319L242.405 351.055L242.258 350.967L241.729 349.938L240.994 349.321C240.876 348.969 240.729 348.675 240.523 348.44C240.171 348.205 239.818 347.97 239.494 347.735L239.024 346.883L237.642 346.412C236.907 345.56 236.114 345.237 235.261 345.355C235.026 345.178 234.762 345.002 234.497 344.855L233.938 344.796C233.556 344.503 233.057 344.326 232.439 344.297C232.028 344.297 231.704 344.385 231.469 344.62C231.293 344.767 231.175 344.973 231.116 345.208L230.822 346.03Z" fill="#526653"/>
<path d="M259.014 346.501L258.837 346.706L258.132 347.382L257.603 347.852C256.985 348.352 256.074 348.587 254.928 348.587C254.369 348.41 253.84 348.146 253.37 347.764L253.311 347.735C252.752 347.176 252.429 346.412 252.341 345.413C252.399 344.503 252.635 343.68 253.105 342.945L253.223 342.769C253.37 342.563 253.899 342.27 254.781 341.799C255.28 341.653 255.78 341.682 256.28 341.888C256.721 342.123 257.309 342.328 258.044 342.505C258.514 342.916 258.837 343.415 259.043 343.974C259.161 344.356 259.19 344.679 259.131 344.914C259.043 345.267 259.043 345.648 259.073 346.089L259.014 346.501Z" fill="#526653"/>
<path d="M273.124 337.333C273.095 337.422 272.801 337.715 272.272 338.244L272.007 338.685L271.478 340.125L270.537 340.977C270.184 341.241 269.89 341.329 269.685 341.212L268.92 340.83C268.421 340.565 268.391 340.066 268.803 339.302L268.979 338.068C268.979 337.745 268.803 337.451 268.421 337.128C267.95 337.04 267.568 336.922 267.274 336.775L266.422 336.011L265.452 335.659L264.687 335.012L263.717 334.807L262.894 334.278C262.424 334.013 261.924 333.984 261.395 334.16L261.218 334.072C260.748 333.572 260.454 333.308 260.366 333.249C259.043 332.867 258.279 332.632 258.044 332.485L257.367 331.751L256.956 331.545C256.544 331.457 256.162 331.398 255.78 331.369L255.633 331.31L254.663 330.546L253.428 330.693L252.546 331.369C252.194 331.692 251.812 331.721 251.4 331.516L250.43 331.222C249.871 330.928 249.871 330.047 250.43 328.578L250.665 328.166C250.871 328.049 251.018 327.931 251.106 327.784L251.341 327.197C251.576 326.785 251.988 326.521 252.576 326.462L252.958 326.198C253.223 325.698 253.252 324.993 253.076 324.082C253.37 323.259 253.487 322.584 253.458 322.055L253.546 321.879L254.193 321.232L254.634 320.204C254.781 320.057 255.075 319.851 255.545 319.587L257.25 318.029C257.897 317.941 258.485 317.941 259.043 318.029C260.19 317.589 260.895 317.354 261.16 317.354C262.071 317.706 263.07 317.883 264.099 317.824C264.187 317.853 264.452 318.147 264.893 318.646L265.687 318.764L265.804 318.823L267.098 319.792L268.244 320.262C268.715 321.203 269.273 321.908 269.89 322.349C270.037 322.525 270.126 323.024 270.155 323.847C270.155 324.552 270.478 325.081 271.184 325.463V325.669L270.596 326.727C270.743 327.49 270.772 327.931 270.714 328.049L270.39 328.901L270.42 329.106L269.743 329.694C269.596 330.429 269.449 330.928 269.361 331.104L268.891 331.604L268.45 332.25L267.774 332.955L268.391 334.307L268.744 334.513C269.156 334.483 269.479 334.513 269.685 334.63L270.214 335.218C270.478 335.365 270.978 335.159 271.713 334.601L271.948 334.219L272.83 333.308C273.006 333.161 273.33 333.191 273.8 333.426L274.447 333.808L274.418 334.689L273.624 335.835C273.418 336.364 273.242 336.893 273.124 337.333ZM267.686 328.695C267.803 328.489 267.774 328.137 267.627 327.637L267.891 327.138C268.097 326.785 267.891 326.433 267.274 326.109C267.245 325.904 267.245 325.728 267.333 325.581L267.656 325.14C267.774 324.905 267.568 324.552 266.98 324.082C266.921 323.583 266.774 323.259 266.51 323.142L265.628 323.054L265.569 323.024L265.011 322.055H263.747L263.688 322.025L263.335 321.173C262.659 321.32 262.247 321.32 262.071 321.232L261.512 320.703L261.248 320.556C260.601 320.644 259.984 320.88 259.396 321.35L258.426 321.32L257.72 322.26L256.956 322.584L256.368 323.495C256.133 323.994 256.045 324.552 256.162 325.169L256.133 325.287C255.927 325.816 256.074 326.58 256.544 327.52L257.074 327.931L257.75 327.99C257.897 328.401 258.102 328.666 258.338 328.783L259.072 328.871C259.249 329.077 259.425 329.4 259.602 329.812L260.866 329.606L260.954 329.635C261.189 330.194 261.424 330.517 261.659 330.634C261.924 330.781 262.336 330.811 262.894 330.752C263.482 331.075 264.276 331.075 265.246 330.752C265.393 330.458 265.893 330.164 266.686 329.812C266.863 329.518 267.186 329.136 267.686 328.695Z" fill="#526653"/>
<path d="M277.769 310.978C277.71 311.183 277.387 311.801 276.74 312.858C276.446 313.681 275.946 314.004 275.211 313.828L274.947 313.74C274.271 313.299 273.888 312.799 273.8 312.241C273.741 311.301 273.33 310.713 272.624 310.478L271.331 310.361L270.273 309.891C269.832 309.92 269.479 309.92 269.185 309.891C269.038 309.832 268.715 309.656 268.244 309.45L267.098 309.332L266.451 309.009H265.51L264.834 308.686C264.305 308.569 263.894 308.715 263.57 309.127C263.247 309.597 262.953 309.949 262.659 310.126C262.159 310.273 261.689 310.302 261.307 310.214H261.248C261.13 310.185 261.042 310.155 260.925 310.096C260.072 309.597 259.749 309.039 259.896 308.422V308.392L260.395 307.599C260.425 307.07 260.425 306.659 260.425 306.394L260.836 305.777C261.189 305.307 261.454 304.896 261.571 304.543C261.454 303.809 261.395 302.927 261.395 301.84C261.512 301.341 261.953 300.459 262.659 299.254L262.865 298.784V297.697C262.835 297.286 262.835 296.698 262.865 295.964C262.894 295.787 262.924 295.611 262.982 295.405L263.07 295.082C263.511 294.465 263.835 293.878 264.07 293.29C264.246 292.908 265.04 292.438 266.481 291.821L268.538 291.762L269.185 292.144C269.273 292.173 269.773 292.173 270.655 292.144L271.566 292.497L272.33 292.526L273.301 293.143C273.712 293.055 274.035 293.025 274.3 293.084L275.094 293.496L276.064 293.554L276.799 293.966C277.445 294.113 278.18 293.672 279.033 292.614C279.65 292.291 280.15 292.173 280.503 292.262H280.532C281.208 292.644 281.561 293.084 281.59 293.584L281.502 293.907L280.914 295.082C280.855 295.347 280.855 296.022 280.944 297.051C280.914 297.139 280.65 297.638 280.179 298.549L279.797 299.46C279.944 300.136 280.003 300.606 279.944 300.9L279.18 302.78L279.268 303.867C279.062 304.132 278.768 304.925 278.416 306.247C278.474 306.835 278.504 307.246 278.504 307.481C278.033 308.333 277.739 308.98 277.622 309.479L277.769 310.978ZM276.181 305.836C276.152 305.63 276.064 305.337 275.976 304.955C275.917 304.455 275.593 304.132 275.035 303.985C274.859 303.956 274.653 303.926 274.418 303.926L273.683 303.574C273.271 303.544 272.948 303.603 272.713 303.75L272.448 303.662L271.801 303.133L270.655 303.221C270.478 303.015 270.155 302.868 269.744 302.78L269.655 302.751C269.391 302.692 269.126 302.663 268.832 302.692L268.744 302.663L268.274 302.398L267.98 302.31L267.098 302.34L266.334 301.869C265.569 302.016 264.981 302.398 264.57 302.986C264.54 303.162 264.805 303.632 265.363 304.396C265.481 305.219 265.775 305.689 266.245 305.807L267.157 305.748L267.921 306.159L268.979 306.13C269.214 306.189 269.567 306.306 270.067 306.541L270.89 306.571L271.948 307.188H273.154L273.712 307.481L274.065 307.57C274.741 307.511 275.153 307.188 275.27 306.659L276.123 306.1L276.181 305.836ZM277.916 299.137L277.269 298.285C277.181 297.932 276.975 297.55 276.622 297.139C276.211 297.051 275.887 296.992 275.623 296.963H274.859C274.682 296.933 274.241 296.757 273.624 296.434C273.536 296.404 273.124 296.404 272.389 296.434L271.331 295.817L270.655 295.993C270.331 295.905 269.655 295.699 268.685 295.317H268.626C268.127 295.2 267.627 295.259 267.186 295.494L266.774 295.846L266.51 296.258L266.804 297.256C266.863 297.815 267.215 298.226 267.803 298.491L268.656 299.372L269.891 299.196L270.772 299.725L271.566 299.548C271.654 299.607 271.919 299.754 272.36 299.93L273.418 299.842L274.3 300.195L275.241 300.283L275.858 300.577C276.387 300.665 276.711 300.459 276.887 300.048C277.034 299.813 277.387 299.49 277.916 299.137Z" fill="#526653"/>
<path d="M180.731 191.717L180.201 193.95L179.143 195.918L178.32 198.034L176.644 199.562L174.616 200.443L172.617 201.354L170.412 202.206L168.09 201.912L166.179 200.502L164.18 199.562L162.622 197.946L161.27 196.124L160.388 194.009L160.741 191.717L160.212 189.396L161.505 187.427L162.416 185.341L164.239 183.989L165.856 182.285L168.09 181.521L170.412 181.756L172.764 181.492L174.822 182.608L176.439 184.166L178.114 185.605L179.437 187.398L180.231 189.484L180.731 191.717Z" fill="#FFFEFD"/>
<path d="M170.618 76.8336L170.941 78.9197L171.265 81.0058L170.971 83.1213L171.294 85.2075L171.206 87.2936L170.589 89.4091L170.941 91.4952L170.53 93.6107L171.235 95.6968L170.912 97.8123L171.059 99.9278L170.559 102.014L170.5 104.129L171.382 106.245L170.589 108.331L171.088 110.446L170.589 112.562L170.912 114.648L170.824 116.764L171.147 118.879L170.883 120.965L171.324 123.081L170.589 125.196L170.736 127.312L170.589 129.427L170.853 131.513L170.912 133.629V135.744L171.235 137.86L171.03 139.975L170.677 142.091L171.059 144.206L170.618 146.292L171 148.379L170.736 150.494L171.206 152.609L171.265 154.725L170.677 156.84L170.589 158.956L170.618 161.042L171.03 163.187L170.559 165.302L171.118 167.418L170.53 169.533L170.559 171.649L171.059 173.764L170.853 175.88V178.025L171.206 180.14L171.324 182.285L170.706 184.401" fill="white"/>
<path d="M170.618 76.8336L170.941 78.9197L171.265 81.0058L170.971 83.1213L171.294 85.2075L171.206 87.2936L170.589 89.4091L170.941 91.4952L170.53 93.6107L171.235 95.6968L170.912 97.8123L171.059 99.9278L170.559 102.014L170.5 104.129L171.382 106.245L170.589 108.331L171.088 110.446L170.589 112.562L170.912 114.648L170.824 116.764L171.147 118.879L170.883 120.965L171.324 123.081L170.589 125.196L170.736 127.312L170.589 129.427L170.853 131.513L170.912 133.629V135.744L171.235 137.86L171.03 139.975L170.677 142.091L171.059 144.206L170.618 146.292L171 148.379L170.736 150.494L171.206 152.609L171.265 154.725L170.677 156.84L170.589 158.956L170.618 161.042L171.03 163.187L170.559 165.302L171.118 167.418L170.53 169.533L170.559 171.649L171.059 173.764L170.853 175.88V178.025L171.206 180.14L171.324 182.285L170.706 184.401" stroke="white" stroke-width="3" stroke-miterlimit="10" stroke-linecap="round"/>
<path d="M112.854 161.277L114.559 162.599L116.646 163.187L118.263 164.656L120.085 165.802L122.172 166.419L123.995 167.506L126.082 168.094L127.611 169.769L129.639 170.444L131.667 171.149L133.372 172.472L135.136 173.647L137.106 174.499L139.134 175.204L141.221 175.851L142.868 177.29L144.925 177.937L146.719 179.083L148.6 180.111L150.57 180.963L152.216 182.461L154.509 182.697L156.361 183.725L158.036 185.165L160.065 185.899L161.946 186.928L163.945 187.78L165.856 188.779" fill="white"/>
<path d="M112.854 161.277L114.559 162.599L116.646 163.187L118.263 164.656L120.085 165.802L122.172 166.419L123.995 167.506L126.082 168.094L127.611 169.769L129.639 170.444L131.667 171.149L133.372 172.472L135.136 173.647L137.106 174.499L139.134 175.204L141.221 175.851L142.868 177.29L144.925 177.937L146.719 179.083L148.6 180.111L150.57 180.963L152.216 182.461L154.509 182.697L156.361 183.725L158.036 185.165L160.065 185.899L161.946 186.928L163.945 187.78L165.856 188.779" stroke="white" stroke-width="3" stroke-miterlimit="10" stroke-linecap="round"/>
<path d="M221.239 161.63L220.416 163.569L219.299 165.185L217.829 166.654L215.742 167.124L213.743 166.448L211.626 165.743L211.009 163.569L210.01 161.63L210.745 159.573L212.097 157.986L213.684 156.664L215.742 156.459L217.976 156.194L219.681 157.663L220.828 159.514L221.239 161.63Z" fill="white"/>
<path d="M165.033 296.845L163.828 298.902L162.828 300.782L160.976 301.869L158.889 302.839L156.508 302.575L154.685 301.047L153.539 299.049L152.716 296.845L153.98 294.818L154.832 292.79L156.802 291.821L158.889 291.174L161.27 291.145L163.004 292.732L164.004 294.73L165.033 296.845Z" stroke="white" stroke-miterlimit="10"/>
<path d="M201.69 247.866L201.191 249.687L200.25 251.333L198.692 252.449L196.781 252.332L194.87 252.449L193.43 251.215L191.931 249.864L191.695 247.866L192.078 245.897L193.577 244.634L194.988 243.546L196.781 242.782L198.545 243.576L200.338 244.31L201.455 245.897L201.69 247.866Z" stroke="white" stroke-miterlimit="10"/>
<path d="M143.485 248.277L143.456 250.334L141.986 251.803L140.516 253.213L138.458 253.889L136.459 253.096L135.048 251.685L133.431 250.363L133.049 248.277L133.608 246.279L134.548 244.369L136.606 243.782L138.458 243.311L140.34 243.752L142.28 244.457L143.367 246.25L143.485 248.277Z" fill="white"/>
<path d="M60.2043 199.327L59.9103 201.237L58.8521 202.911L57.2646 204.087H55.2951L53.4431 203.763L51.5029 203.088L50.5034 201.295L50.5916 199.327L50.915 197.505L51.6499 195.713L53.1785 194.273L55.2951 194.42L57.1177 194.89L58.9403 195.654L60.3807 197.211L60.2043 199.327Z" fill="white"/>
<path d="M141.721 86.8822L141.604 89.1153L140.075 90.9957L137.694 91.2895L135.313 90.9957L134.078 88.9683L133.578 86.8822L133.843 84.6492L135.607 83.2683L137.694 82.0636L139.869 83.092L141.662 84.5904L141.721 86.8822Z" fill="white"/>
<path d="M256.721 222.773L256.662 224.801L255.28 226.329L253.722 227.533L251.753 228.15L249.813 227.416L247.961 226.534L246.932 224.742L246.726 222.773L247.402 220.981L248.225 219.248L249.636 217.661L251.753 217.279L253.605 218.249L255.516 218.983L256.75 220.687L256.721 222.773Z" fill="white"/>
<path d="M287.646 183.901L286.529 185.723L284.589 186.252L282.707 187.045L280.738 187.104L278.651 186.663L279.033 188.896L278.269 190.865L278.445 192.892L278.092 194.89L278.269 196.976L277.651 198.915L277.063 200.884L275.505 201.648L273.947 200.855L273.477 198.886L273.154 196.917L272.654 194.949L272.301 192.921L272.095 190.894L272.242 188.867L272.213 186.839L270.184 187.016L268.186 186.722L266.216 186.311L264.452 185.429L262.982 183.901L264.599 182.579L266.245 181.698L268.215 181.463L270.214 181.11L272.095 180.816L272.713 178.818L272.272 176.644L272.713 174.499V172.266L274.094 170.474L275.505 168.799L276.74 170.532L278.033 172.325L278.416 174.47L278.533 176.644L278.151 178.789L278.416 180.992L280.473 180.728L282.502 180.699L284.442 181.58L286.382 182.109L287.646 183.901Z" fill="white"/>
<path d="M87.5138 157.928L86.1909 159.279L83.9862 159.162L81.7814 159.015L81.3993 161.218L81.0465 163.363L80.047 165.391L79.2239 167.359L77.9599 168.946L76.7546 167.124L76.9016 164.921L77.3131 162.746L76.7546 160.484L77.1368 158.603L75.226 157.575L72.8449 157.458L72.0511 155.46L73.4328 153.844L75.7551 154.49L77.9305 154.226L78.6948 152.286L79.3415 150.2L79.6649 147.967L81.5169 146.616L82.7221 148.496L83.0161 150.729L82.7221 152.933L82.2224 155.048L84.3683 155.783L86.4261 156.576L87.5138 157.928Z" fill="white"/>
</g>
<defs>
<clipPath id="clip0_180_8">
<rect width="343" height="376" fill="white"/>
</clipPath>
</defs>
</svg>
