<svg width="200" height="200" viewBox="0 0 200 200" fill="none" xmlns="http://www.w3.org/2000/svg">
<path d="M100 183.333C88.6112 183.333 77.8473 181.144 67.7084 176.767C57.5695 172.389 48.7168 166.417 41.1501 158.85C33.5834 151.283 27.6112 142.431 23.2334 132.292C18.8556 122.153 16.6667 111.389 16.6667 100C16.6667 88.4722 18.8556 77.675 23.2334 67.6083C27.6112 57.5417 33.5834 48.7222 41.1501 41.15C48.7168 33.5778 57.5695 27.6055 67.7084 23.2333C77.8473 18.8611 88.6112 16.6722 100 16.6667C111.528 16.6667 122.328 18.8555 132.4 23.2333C142.472 27.6111 151.289 33.5833 158.85 41.15C166.411 48.7167 172.383 57.5361 176.767 67.6083C181.15 77.6805 183.339 88.4778 183.333 100C183.333 111.389 181.145 122.153 176.767 132.292C172.389 142.431 166.417 151.286 158.85 158.858C151.283 166.431 142.464 172.403 132.392 176.775C122.32 181.147 111.522 183.333 100 183.333ZM100 166.25C103.611 161.25 106.736 156.042 109.375 150.625C112.014 145.208 114.167 139.444 115.833 133.333H84.1668C85.8334 139.444 87.9862 145.208 90.6251 150.625C93.264 156.042 96.389 161.25 100 166.25ZM78.3334 162.917C75.8334 158.333 73.6473 153.575 71.7751 148.642C69.9029 143.708 68.339 138.606 67.0834 133.333H42.5001C46.5279 140.278 51.564 146.319 57.6084 151.458C63.6529 156.597 70.5612 160.417 78.3334 162.917ZM121.667 162.917C129.445 160.417 136.356 156.597 142.4 151.458C148.445 146.319 153.478 140.278 157.5 133.333H132.917C131.667 138.611 130.106 143.717 128.233 148.65C126.361 153.583 124.172 158.339 121.667 162.917ZM35.4167 116.667H63.7501C63.3334 113.889 63.0223 111.147 62.8168 108.442C62.6112 105.736 62.5056 102.922 62.5001 100C62.4945 97.0778 62.6001 94.2667 62.8168 91.5667C63.0334 88.8667 63.3445 86.1222 63.7501 83.3333H35.4167C34.7223 86.1111 34.2029 88.8556 33.8584 91.5667C33.514 94.2778 33.339 97.0889 33.3334 100C33.3279 102.911 33.5029 105.725 33.8584 108.442C34.214 111.158 34.7334 113.9 35.4167 116.667ZM80.4167 116.667H119.583C120 113.889 120.314 111.147 120.525 108.442C120.736 105.736 120.839 102.922 120.833 100C120.828 97.0778 120.722 94.2667 120.517 91.5667C120.311 88.8667 120 86.1222 119.583 83.3333H80.4167C80.0001 86.1111 79.689 88.8556 79.4834 91.5667C79.2779 94.2778 79.1723 97.0889 79.1668 100C79.1612 102.911 79.2668 105.725 79.4834 108.442C79.7001 111.158 80.0112 113.9 80.4167 116.667ZM136.25 116.667H164.583C165.278 113.889 165.8 111.147 166.15 108.442C166.5 105.736 166.672 102.922 166.667 100C166.661 97.0778 166.489 94.2667 166.15 91.5667C165.811 88.8667 165.289 86.1222 164.583 83.3333H136.25C136.667 86.1111 136.981 88.8556 137.192 91.5667C137.403 94.2778 137.506 97.0889 137.5 100C137.495 102.911 137.389 105.725 137.183 108.442C136.978 111.158 136.667 113.9 136.25 116.667ZM132.917 66.6667H157.5C153.472 59.7222 148.439 53.6805 142.4 48.5417C136.361 43.4028 129.45 39.5833 121.667 37.0833C124.167 41.6667 126.356 46.425 128.233 51.3583C130.111 56.2917 131.672 61.3944 132.917 66.6667ZM84.1668 66.6667H115.833C114.167 60.5555 112.014 54.7917 109.375 49.375C106.736 43.9583 103.611 38.75 100 33.75C96.389 38.75 93.264 43.9583 90.6251 49.375C87.9862 54.7917 85.8334 60.5555 84.1668 66.6667ZM42.5001 66.6667H67.0834C68.3334 61.3889 69.8973 56.2833 71.7751 51.35C73.6529 46.4167 75.839 41.6611 78.3334 37.0833C70.5556 39.5833 63.6445 43.4028 57.6001 48.5417C51.5556 53.6805 46.5223 59.7222 42.5001 66.6667Z" fill="#917657"/>
</svg>
