<svg width="200" height="200" viewBox="0 0 200 200" fill="none" xmlns="http://www.w3.org/2000/svg">
<g clip-path="url(#clip0_7_41)">
<path fill-rule="evenodd" clip-rule="evenodd" d="M100 33.333C107.125 33.333 114.433 33.5163 121.517 33.8163L129.883 34.2163L137.892 34.6913L145.392 35.1997L152.242 35.733C159.677 36.2988 166.673 39.47 172 44.688C177.326 49.9061 180.64 56.8363 181.358 64.258L181.692 67.7997L182.317 75.383C182.9 83.2413 183.333 91.808 183.333 99.9997C183.333 108.191 182.9 116.758 182.317 124.616L181.692 132.2L181.358 135.741C180.64 143.164 177.324 150.096 171.996 155.314C166.668 160.532 159.67 163.702 152.233 164.266L145.4 164.791L137.9 165.308L129.883 165.783L121.517 166.183C114.349 166.493 107.175 166.655 100 166.666C92.8252 166.655 85.6514 166.493 78.4833 166.183L70.1166 165.783L62.1083 165.308L54.6083 164.791L47.7583 164.266C40.3234 163.701 33.3266 160.529 28.0003 155.311C22.674 150.093 19.3599 143.163 18.6416 135.741L18.3083 132.2L17.6833 124.616C17.0486 116.426 16.7095 108.215 16.6666 99.9997C16.6666 91.808 17.1 83.2413 17.6833 75.383L18.3083 67.7997L18.6416 64.258C19.3596 56.8376 22.6726 49.9084 27.9972 44.6906C33.3217 39.4727 40.3166 36.3006 47.75 35.733L54.5916 35.1997L62.0916 34.6913L70.1083 34.2163L78.475 33.8163C85.6458 33.5057 92.8224 33.3446 100 33.333ZM83.3333 79.7913V120.208C83.3333 124.058 87.5 126.458 90.8333 124.541L125.833 104.333C126.595 103.895 127.228 103.263 127.667 102.502C128.107 101.742 128.339 100.878 128.339 99.9997C128.339 99.1209 128.107 98.2576 127.667 97.4969C127.228 96.7361 126.595 96.1047 125.833 95.6663L90.8333 75.4663C90.073 75.0274 89.2105 74.7963 88.3325 74.7965C87.4545 74.7966 86.5921 75.0279 85.8319 75.4671C85.0717 75.9064 84.4406 76.538 84.002 77.2986C83.5634 78.0591 83.3327 78.9217 83.3333 79.7997V79.7913Z" fill="#917657"/>
</g>
<defs>
<clipPath id="clip0_7_41">
<rect width="200" height="200" fill="white"/>
</clipPath>
</defs>
</svg>
