<svg width="200" height="200" viewBox="0 0 200 200" fill="none" xmlns="http://www.w3.org/2000/svg">
<path d="M108.567 16.667C117.942 16.692 122.7 16.742 126.808 16.8587L128.425 16.917C130.292 16.9837 132.133 17.067 134.358 17.167C143.225 17.5837 149.275 18.9837 154.583 21.042C160.083 23.1587 164.717 26.0253 169.35 30.6503C173.589 34.8148 176.868 39.8543 178.958 45.417C181.017 50.7253 182.417 56.7753 182.833 65.6503C182.933 67.867 183.017 69.7087 183.083 71.5837L183.133 73.2003C183.258 77.3003 183.308 82.0587 183.325 91.4337L183.333 97.6503V108.567C183.354 114.645 183.29 120.724 183.142 126.8L183.092 128.417C183.025 130.292 182.942 132.134 182.842 134.35C182.425 143.225 181.008 149.267 178.958 154.584C176.868 160.146 173.589 165.186 169.35 169.35C165.186 173.589 160.146 176.869 154.583 178.959C149.275 181.017 143.225 182.417 134.358 182.834L128.425 183.084L126.808 183.134C122.7 183.25 117.942 183.309 108.567 183.325L102.35 183.334H91.4416C85.3605 183.355 79.2793 183.291 73.1999 183.142L71.5833 183.092C69.605 183.017 67.6272 182.931 65.6499 182.834C56.7833 182.417 50.7333 181.017 45.4166 178.959C39.8569 176.867 34.8203 173.588 30.6583 169.35C26.4161 165.187 23.1342 160.147 21.0416 154.584C18.9833 149.275 17.5833 143.225 17.1666 134.35L16.9166 128.417L16.8749 126.8C16.7213 120.724 16.6519 114.645 16.6666 108.567V91.4337C16.6435 85.3553 16.7047 79.277 16.8499 73.2003L16.9083 71.5837C16.9749 69.7087 17.0583 67.867 17.1583 65.6503C17.5749 56.7753 18.9749 50.7337 21.0333 45.417C23.1307 39.852 26.4185 34.8123 30.6666 30.6503C34.8262 26.4132 39.8598 23.1343 45.4166 21.042C50.7333 18.9837 56.7749 17.5837 65.6499 17.167C67.8666 17.067 69.7166 16.9837 71.5833 16.917L73.1999 16.867C79.2766 16.7189 85.3549 16.655 91.4333 16.6753L108.567 16.667ZM99.9999 58.3337C88.9493 58.3337 78.3512 62.7235 70.5372 70.5375C62.7231 78.3516 58.3333 88.9496 58.3333 100C58.3333 111.051 62.7231 121.649 70.5372 129.463C78.3512 137.277 88.9493 141.667 99.9999 141.667C111.051 141.667 121.649 137.277 129.463 129.463C137.277 121.649 141.667 111.051 141.667 100C141.667 88.9496 137.277 78.3516 129.463 70.5375C121.649 62.7235 111.051 58.3337 99.9999 58.3337ZM99.9999 75.0003C103.283 74.9998 106.534 75.6459 109.567 76.9017C112.601 78.1576 115.357 79.9986 117.679 82.3197C120.001 84.6408 121.843 87.3965 123.1 90.4294C124.356 93.4623 125.004 96.7131 125.004 99.9962C125.005 103.279 124.359 106.53 123.103 109.564C121.847 112.597 120.006 115.353 117.685 117.675C115.364 119.997 112.608 121.839 109.575 123.096C106.542 124.353 103.291 125 100.008 125C93.3779 125 87.019 122.366 82.3306 117.678C77.6422 112.99 75.0083 106.631 75.0083 100C75.0083 93.3699 77.6422 87.0111 82.3306 82.3226C87.019 77.6342 93.3779 75.0003 100.008 75.0003M143.758 45.8337C140.996 45.8337 138.346 46.9311 136.393 48.8846C134.439 50.8381 133.342 53.4877 133.342 56.2503C133.342 59.013 134.439 61.6625 136.393 63.616C138.346 65.5695 140.996 66.667 143.758 66.667C146.521 66.667 149.17 65.5695 151.124 63.616C153.077 61.6625 154.175 59.013 154.175 56.2503C154.175 53.4877 153.077 50.8381 151.124 48.8846C149.17 46.9311 146.521 45.8337 143.758 45.8337Z" fill="#917657"/>
</svg>
